<?xml version="1.0" encoding="UTF-8" standalone="no"?><!DOCTYPE svg PUBLIC "-//W3C//DTD SVG 1.1//EN" "http://www.w3.org/Graphics/SVG/1.1/DTD/svg11.dtd"><svg width="100%" height="100%" viewBox="0 0 100 100" version="1.1" xmlns="http://www.w3.org/2000/svg" xmlns:xlink="http://www.w3.org/1999/xlink" xml:space="preserve" xmlns:serif="http://www.serif.com/" style="fill-rule:evenodd;clip-rule:evenodd;stroke-linejoin:round;stroke-miterlimit:2;"><path id="TGN_Logo" d="M48.953,98.958c-0,-0.002 -0,-0.004 -0,-0.005c-0,-0.575 0.473,-1.048 1.047,-1.048c0.574,0 1.047,0.473 1.047,1.048c0,0.574 -0.472,1.047 -1.047,1.047c-0.001,-0 -0.002,-0 -0.003,-0c-0.572,-0 -1.043,-0.47 -1.044,-1.042Zm10.257,-0.853c-0.016,-0.073 -0.024,-0.147 -0.024,-0.222c0,-0.574 0.473,-1.047 1.047,-1.047c0.574,0 1.047,0.473 1.047,1.047c-0,0.492 -0.347,0.921 -0.829,1.024c-0.072,0.015 -0.145,0.023 -0.219,0.023c-0.491,0 -0.919,-0.345 -1.022,-0.825Zm-19.661,0.802c-0.481,-0.103 -0.828,-0.531 -0.828,-1.023c-0,-0.574 0.472,-1.047 1.046,-1.047c0.574,0 1.047,0.473 1.047,1.047c-0,0.573 -0.472,1.046 -1.046,1.046c-0.074,-0 -0.147,-0.008 -0.219,-0.023Zm-9.995,-3.23c-0.379,-0.168 -0.625,-0.545 -0.625,-0.96c0,-0.577 0.474,-1.051 1.051,-1.051c0.576,0 1.05,0.474 1.05,1.051c0,0.576 -0.474,1.05 -1.05,1.05c-0.001,0 -0.001,0 -0.001,0c-0.146,0 -0.291,-0.03 -0.425,-0.09Zm39.509,-0.529c-0.061,-0.135 -0.092,-0.282 -0.092,-0.431c-0,-0.576 0.474,-1.05 1.05,-1.05c0.576,0 1.05,0.474 1.05,1.05c-0,0.576 -0.474,1.05 -1.049,1.05c-0.414,0.003 -0.791,-0.241 -0.959,-0.619Zm-48.61,-4.697c-0.271,-0.195 -0.432,-0.509 -0.432,-0.843c0,-0.22 0.07,-0.435 0.2,-0.612c0.34,-0.463 0.999,-0.566 1.464,-0.23c0.268,0.196 0.427,0.51 0.427,0.842c0,0.573 -0.471,1.044 -1.043,1.044c-0.222,-0 -0.438,-0.071 -0.616,-0.201l-0,-0Zm57.632,-0.231c-0.13,-0.178 -0.2,-0.392 -0.2,-0.613c-0,-0.333 0.161,-0.647 0.431,-0.842c0.465,-0.335 1.124,-0.232 1.463,0.231c0.129,0.178 0.198,0.392 0.198,0.612c-0,0.573 -0.472,1.045 -1.045,1.045c-0.335,-0 -0.651,-0.161 -0.847,-0.433Zm-30.179,-1.678c-0,-0.004 -0,-0.008 -0,-0.011c-0,-1.149 0.945,-2.095 2.094,-2.095c1.149,0 2.094,0.946 2.094,2.095c0,1.149 -0.945,2.094 -2.094,2.094c-0.002,0 -0.004,0 -0.006,0c-1.144,0 -2.086,-0.939 -2.088,-2.083l-0,-0Zm-9.411,0.439c-0.89,-0.262 -1.506,-1.084 -1.506,-2.012c0,-1.15 0.947,-2.096 2.097,-2.096c1.15,-0 2.096,0.946 2.096,2.096c0,1.15 -0.946,2.096 -2.096,2.097c-0.2,-0.001 -0.399,-0.029 -0.591,-0.085l0,-0Zm20.438,-1.42c-0.057,-0.193 -0.086,-0.394 -0.086,-0.596c-0,-1.148 0.944,-2.093 2.092,-2.093c1.149,0 2.093,0.945 2.093,2.093c0,0.925 -0.613,1.745 -1.5,2.007c-1.099,0.324 -2.271,-0.312 -2.599,-1.411Zm-31.009,-3.382c-0.599,-0.381 -0.963,-1.043 -0.963,-1.752c0,-0.4 0.116,-0.792 0.333,-1.127c0.624,-0.963 1.927,-1.245 2.894,-0.627c0.594,0.384 0.955,1.045 0.955,1.753c-0,1.144 -0.942,2.087 -2.087,2.087c-0.402,-0 -0.795,-0.116 -1.132,-0.334Zm41.283,-0.641c-0.217,-0.335 -0.333,-0.727 -0.333,-1.127c0,-0.709 0.363,-1.37 0.961,-1.752c0.966,-0.618 2.269,-0.336 2.895,0.625c0.21,0.334 0.322,0.721 0.322,1.116c-0,1.147 -0.944,2.091 -2.091,2.091c-0.708,-0 -1.369,-0.359 -1.754,-0.953l-0,0Zm-56.564,-0.081c-0.173,-0.191 -0.269,-0.44 -0.269,-0.697c0,-0.296 0.126,-0.577 0.346,-0.774c0.428,-0.383 1.094,-0.348 1.48,0.077c0.171,0.191 0.266,0.44 0.266,0.697c0,0.573 -0.471,1.045 -1.044,1.045c-0.297,-0 -0.581,-0.127 -0.779,-0.348Zm73.234,0.077c-0.22,-0.197 -0.346,-0.479 -0.346,-0.774c0,-0.258 0.096,-0.506 0.269,-0.697c0.385,-0.425 1.051,-0.46 1.479,-0.078c0.219,0.197 0.345,0.479 0.345,0.774c-0,0.572 -0.471,1.042 -1.042,1.042c-0.001,0 -0.003,0 -0.004,0c-0.259,0 -0.508,-0.095 -0.701,-0.267l0,-0Zm-39.019,-4.367c0,-0.005 0,-0.011 0,-0.017c0,-1.723 1.419,-3.141 3.142,-3.141c1.724,-0 3.142,1.418 3.142,3.141c-0,1.724 -1.418,3.142 -3.142,3.142c-0.003,0 -0.005,0 -0.008,0c-1.716,0 -3.129,-1.409 -3.134,-3.125l0,0Zm-9.282,0.667c-1.174,-0.486 -1.943,-1.637 -1.943,-2.908c-0,-1.725 1.42,-3.146 3.146,-3.146c1.726,0 3.146,1.421 3.146,3.146c0,1.726 -1.42,3.147 -3.146,3.147c-0.001,-0 -0.001,-0 -0.001,-0c-0.413,0 -0.821,-0.081 -1.202,-0.24l0,0.001Zm20.743,-1.691c-0.159,-0.383 -0.241,-0.793 -0.241,-1.208c-0,-1.722 1.417,-3.139 3.139,-3.139c1.722,-0 3.139,1.417 3.139,3.139c0,1.265 -0.764,2.412 -1.932,2.898c-1.59,0.657 -3.439,-0.105 -4.105,-1.691l0,0.001Zm-39.181,-1.533c-0.33,-0.378 -0.512,-0.863 -0.512,-1.365c-0,-0.604 0.264,-1.179 0.722,-1.573c0.87,-0.749 2.2,-0.655 2.955,0.209c0.326,0.378 0.504,0.862 0.504,1.361c0,1.146 -0.943,2.09 -2.09,2.09c-0.606,-0 -1.183,-0.264 -1.579,-0.722Zm58.79,0.191c-0.459,-0.394 -0.724,-0.97 -0.724,-1.575c0,-0.5 0.181,-0.985 0.51,-1.362c0.754,-0.864 2.084,-0.96 2.954,-0.213c0.455,0.396 0.717,0.971 0.717,1.575c0,1.145 -0.942,2.087 -2.087,2.087c-0.503,0 -0.99,-0.182 -1.37,-0.512Zm14.175,-1.419c-0.323,-0.185 -0.524,-0.53 -0.524,-0.902c0,-0.183 0.049,-0.363 0.141,-0.521c0.289,-0.496 0.933,-0.667 1.43,-0.381c0.321,0.186 0.52,0.53 0.52,0.902c-0,0.572 -0.471,1.043 -1.043,1.043c-0.184,-0 -0.365,-0.049 -0.524,-0.141l0,-0Zm-85.637,-0.382c-0.091,-0.158 -0.14,-0.338 -0.14,-0.521c0,-0.372 0.2,-0.717 0.524,-0.901c0.497,-0.287 1.141,-0.115 1.43,0.38c0.091,0.158 0.138,0.337 0.138,0.519c0,0.573 -0.471,1.044 -1.043,1.044c-0,0 -0.001,0 -0.001,0c-0.373,0.001 -0.72,-0.198 -0.908,-0.521Zm62.048,-2.166c-0.589,-0.584 -0.921,-1.38 -0.921,-2.21c0,-0.829 0.332,-1.625 0.921,-2.209c1.221,-1.213 3.221,-1.213 4.443,-0c0.576,0.586 0.9,1.376 0.9,2.198c-0,1.719 -1.415,3.133 -3.134,3.133c-0.827,-0 -1.622,-0.328 -2.209,-0.912Zm-41.471,-0.001c-0.588,-0.584 -0.919,-1.38 -0.919,-2.21c-0,-0.829 0.331,-1.625 0.919,-2.209c1.222,-1.213 3.222,-1.213 4.444,-0c0.584,0.587 0.912,1.382 0.912,2.209c-0,1.719 -1.415,3.134 -3.134,3.134c-0.833,0 -1.634,-0.333 -2.222,-0.924Zm18.768,-5.124c0,-0.008 0,-0.015 0,-0.022c0,-2.298 1.891,-4.189 4.189,-4.189c2.298,-0 4.189,1.891 4.189,4.189c-0,2.298 -1.891,4.188 -4.189,4.188c0,0 0,0 0,0c-2.292,0.006 -4.183,-1.874 -4.189,-4.166l0,-0Zm11.264,-0.932c-0.52,-0.711 -0.8,-1.57 -0.8,-2.451c-0,-1.334 0.643,-2.59 1.725,-3.37c1.861,-1.344 4.495,-0.929 5.853,0.922c0.501,0.707 0.771,1.552 0.771,2.419c-0,2.294 -1.888,4.182 -4.182,4.182c-1.328,-0 -2.579,-0.633 -3.367,-1.702Zm-20.003,0.921c-1.083,-0.78 -1.727,-2.036 -1.727,-3.37c0,-0.881 0.28,-1.739 0.8,-2.45c1.358,-1.851 3.992,-2.266 5.852,-0.922c1.052,0.788 1.672,2.027 1.672,3.341c-0,2.29 -1.885,4.175 -4.175,4.175c-0.868,0 -1.715,-0.271 -2.422,-0.774l-0,-0Zm-24.221,-0.811c-0.128,-0.277 -0.194,-0.578 -0.194,-0.883c-0,-1.152 0.948,-2.1 2.1,-2.1c1.152,0 2.1,0.948 2.1,2.1c-0,1.152 -0.948,2.1 -2.099,2.1c-0.818,0.005 -1.567,-0.473 -1.906,-1.217l-0.001,-0Zm71.534,1.004c-0.748,-0.34 -1.229,-1.089 -1.229,-1.91c-0,-1.152 0.947,-2.099 2.098,-2.099c1.152,0 2.099,0.947 2.099,2.099c-0,1.151 -0.947,2.098 -2.099,2.098c-0,0 -0.001,0 -0.001,0c-0.3,0.001 -0.596,-0.064 -0.868,-0.188l-0,-0Zm12.104,-1.771c-0.431,-0.14 -0.725,-0.544 -0.725,-0.997c0,-0.576 0.474,-1.049 1.049,-1.049c0.575,-0 1.049,0.473 1.049,1.049c-0,0.575 -0.474,1.048 -1.049,1.048c0,0 -0,0 -0,0c-0.11,0 -0.22,-0.017 -0.324,-0.051l-0,-0Zm-94.297,-0.669c-0.035,-0.106 -0.053,-0.217 -0.053,-0.328c0,-0.576 0.474,-1.049 1.049,-1.049c0.575,-0 1.049,0.473 1.049,1.049c-0,0.575 -0.474,1.048 -1.049,1.048c-0.452,0.003 -0.856,-0.29 -0.996,-0.72Zm73.696,-1.402c-1.174,-0.486 -1.944,-1.638 -1.944,-2.909c-0,-1.726 1.42,-3.147 3.147,-3.147c1.727,-0 3.147,1.421 3.147,3.147c0,1.727 -1.42,3.148 -3.147,3.148c-0,-0 -0.001,-0 -0.001,-0c-0.413,0 -0.821,-0.081 -1.202,-0.239Zm-55.881,-1.692c-0.162,-0.386 -0.245,-0.799 -0.245,-1.217c0,-1.726 1.42,-3.146 3.146,-3.146c1.726,0 3.147,1.42 3.147,3.146c-0,1.726 -1.42,3.146 -3.145,3.147c-1.268,0.008 -2.42,-0.758 -2.903,-1.93Zm45.631,-2.923c-1.725,-0.559 -2.9,-2.176 -2.9,-3.989c-0,-2.302 1.893,-4.195 4.194,-4.195c2.302,-0 4.195,1.893 4.195,4.195c0,2.301 -1.893,4.194 -4.194,4.194c-0.44,0 -0.877,-0.069 -1.295,-0.205l-0,0Zm-36.554,-2.675c-0.138,-0.421 -0.208,-0.861 -0.208,-1.305c-0,-2.296 1.89,-4.186 4.187,-4.186c2.297,-0 4.187,1.89 4.187,4.186c-0,1.807 -1.17,3.42 -2.887,3.98c-2.182,0.708 -4.56,-0.497 -5.279,-2.675Zm-19.509,-0.964c-0.015,-0.102 -0.023,-0.205 -0.023,-0.308c0,-1.149 0.946,-2.095 2.095,-2.095c1.149,0 2.094,0.946 2.094,2.095c0,1.036 -0.769,1.924 -1.794,2.072c-0.1,0.015 -0.201,0.022 -0.301,0.022c-1.034,0.001 -1.92,-0.764 -2.071,-1.786Zm78.483,1.738c-1.027,-0.147 -1.798,-1.037 -1.798,-2.074c0,-1.15 0.946,-2.096 2.096,-2.096c1.15,-0 2.096,0.946 2.096,2.096c-0,1.148 -0.945,2.094 -2.094,2.095c-0.1,0 -0.2,-0.007 -0.3,-0.021Zm-88.051,-2.305c-0.004,-0.038 -0.006,-0.076 -0.006,-0.115c-0,-0.575 0.473,-1.048 1.047,-1.048c0.575,0 1.048,0.473 1.048,1.048c0,0.533 -0.407,0.986 -0.937,1.042c-0.037,0.004 -0.075,0.006 -0.112,0.006c-0.532,0 -0.983,-0.405 -1.04,-0.933Zm98.834,0.926c-0.53,-0.056 -0.936,-0.508 -0.936,-1.041c0,-0.574 0.473,-1.047 1.047,-1.047c0.574,0 1.047,0.473 1.047,1.047c0,0.574 -0.472,1.047 -1.046,1.047c-0.037,0 -0.075,-0.002 -0.112,-0.006l-0,0Zm-22.659,-6.154c-0.001,-0.005 -0.001,-0.011 -0.001,-0.016c0,-1.724 1.419,-3.142 3.142,-3.142c1.724,0 3.142,1.418 3.142,3.142c-0,1.723 -1.418,3.141 -3.142,3.141c-1.719,0.005 -3.137,-1.406 -3.141,-3.125l-0,0Zm-58.647,0c0,-0.005 0,-0.011 0,-0.016c0,-1.724 1.418,-3.142 3.142,-3.142c1.723,0 3.142,1.418 3.142,3.142c-0,1.723 -1.419,3.141 -3.142,3.141c-1.719,0.005 -3.137,-1.406 -3.142,-3.125l0,0Zm14.238,-1.508c-1.725,-0.56 -2.9,-2.178 -2.9,-3.991c-0,-2.302 1.894,-4.195 4.195,-4.195c2.302,-0 4.195,1.893 4.195,4.195c0,2.301 -1.893,4.195 -4.195,4.195c-0.439,0 -0.877,-0.069 -1.295,-0.204Zm31.176,-2.677c-0.138,-0.421 -0.208,-0.861 -0.208,-1.304c-0,-2.296 1.889,-4.186 4.186,-4.186c2.296,0 4.186,1.89 4.186,4.186c0,1.807 -1.169,3.419 -2.886,3.98c-2.181,0.708 -4.56,-0.498 -5.278,-2.676Zm-51.603,0.777c-1.027,-0.148 -1.798,-1.037 -1.798,-2.075c-0,-1.15 0.946,-2.096 2.096,-2.096c1.149,0 2.095,0.946 2.095,2.096c0,1.149 -0.944,2.094 -2.093,2.096c-0.1,-0 -0.201,-0.007 -0.3,-0.021Zm74.933,-1.792c-0.015,-0.102 -0.022,-0.204 -0.022,-0.307c-0,-1.149 0.945,-2.094 2.094,-2.094c1.148,-0 2.094,0.945 2.094,2.094c-0,1.036 -0.769,1.923 -1.794,2.072c-0.1,0.014 -0.2,0.022 -0.301,0.022c-1.033,0 -1.92,-0.765 -2.071,-1.787l0,-0Zm11.631,0.193c-0.004,-0.038 -0.006,-0.077 -0.006,-0.116c-0,-0.575 0.473,-1.048 1.047,-1.048c0.575,0 1.048,0.473 1.048,1.048c0,0.533 -0.407,0.986 -0.937,1.042c-0.037,0.004 -0.075,0.006 -0.112,0.006c-0.531,0 -0.982,-0.404 -1.04,-0.932l-0,-0Zm-96.972,0.926c-0.53,-0.057 -0.936,-0.509 -0.936,-1.041c-0,-0.575 0.473,-1.047 1.047,-1.047c0.574,-0 1.047,0.472 1.047,1.047c-0,0.574 -0.472,1.046 -1.046,1.047c-0.038,-0 -0.075,-0.002 -0.112,-0.006Zm73.25,-5.885c-0.161,-0.385 -0.244,-0.799 -0.244,-1.216c-0,-1.726 1.42,-3.146 3.146,-3.146c1.726,-0 3.146,1.42 3.146,3.146c0,1.725 -1.419,3.145 -3.144,3.146c-1.268,0.008 -2.42,-0.758 -2.904,-1.93Zm-52.482,1.691c-1.174,-0.486 -1.944,-1.638 -1.944,-2.909c-0,-1.726 1.421,-3.147 3.147,-3.147c1.727,0 3.147,1.421 3.147,3.147c0,1.727 -1.42,3.148 -3.147,3.148c-0,-0 -0.001,-0 -0.001,-0c-0.413,0 -0.821,-0.081 -1.202,-0.239Zm14.44,-3.6c-0.52,-0.711 -0.801,-1.57 -0.801,-2.451c0,-1.334 0.644,-2.59 1.727,-3.37c1.86,-1.344 4.494,-0.929 5.852,0.921c0.505,0.709 0.777,1.558 0.777,2.428c-0,2.294 -1.888,4.182 -4.182,4.182c-1.332,-0 -2.586,-0.636 -3.373,-1.71l-0,-0Zm21.854,0.92c-1.082,-0.78 -1.725,-2.036 -1.725,-3.37c-0,-0.881 0.28,-1.74 0.8,-2.451c1.358,-1.85 3.992,-2.265 5.852,-0.921c1.067,0.787 1.698,2.036 1.698,3.361c-0,2.29 -1.885,4.175 -4.175,4.175c-0.88,-0 -1.737,-0.278 -2.45,-0.794l0,-0Zm-12.189,-6.753c0,-0.007 0,-0.015 0,-0.022c0,-2.298 1.891,-4.189 4.189,-4.189c2.298,0 4.189,1.891 4.189,4.189c-0,2.298 -1.891,4.189 -4.189,4.189c0,-0 0,-0 0,-0c-2.292,0.006 -4.183,-1.875 -4.189,-4.167Zm-31.935,3.608c-0.748,-0.34 -1.23,-1.089 -1.23,-1.911c-0,-1.151 0.947,-2.099 2.099,-2.099c1.152,-0 2.1,0.948 2.1,2.099c-0,1.152 -0.948,2.1 -2.1,2.1c-0,-0 -0,-0 -0.001,-0c-0.299,0 -0.595,-0.064 -0.868,-0.188l0,-0.001Zm69.462,-1.053c-0.128,-0.276 -0.194,-0.577 -0.194,-0.881c-0,-1.151 0.947,-2.098 2.098,-2.098c1.151,-0 2.099,0.947 2.099,2.098c-0,1.151 -0.947,2.098 -2.098,2.098c-0.818,0.006 -1.567,-0.472 -1.905,-1.217l-0,-0Zm12.479,0.346c-0.035,-0.106 -0.053,-0.217 -0.053,-0.329c-0,-0.575 0.473,-1.049 1.049,-1.049c0.575,0 1.048,0.474 1.048,1.049c0,0.575 -0.473,1.049 -1.048,1.049c-0.453,0.003 -0.857,-0.29 -0.996,-0.72l-0,-0Zm-92.952,0.669c-0.431,-0.14 -0.725,-0.544 -0.725,-0.998c-0,-0.575 0.473,-1.049 1.048,-1.049c0.576,0 1.049,0.474 1.049,1.049c0,0.576 -0.473,1.049 -1.049,1.049c0,0 0,0 0,0c-0.109,0 -0.218,-0.017 -0.323,-0.051Zm24.179,-4.276c-0.588,-0.584 -0.92,-1.38 -0.92,-2.21c0,-0.829 0.332,-1.625 0.92,-2.209c1.222,-1.213 3.222,-1.213 4.443,-0c0.575,0.585 0.897,1.374 0.897,2.194c0,1.719 -1.414,3.134 -3.133,3.134c-0.826,-0 -1.62,-0.327 -2.207,-0.909Zm41.469,-0.001c-0.589,-0.584 -0.92,-1.38 -0.92,-2.21c0,-0.829 0.331,-1.625 0.92,-2.209c1.222,-1.212 3.221,-1.212 4.444,-0c0.583,0.587 0.911,1.382 0.911,2.209c0,1.719 -1.414,3.134 -3.133,3.134c-0.834,0 -1.634,-0.333 -2.222,-0.924Zm-49.179,-5.234c-0.459,-0.394 -0.724,-0.969 -0.724,-1.574c0,-0.501 0.182,-0.985 0.511,-1.363c0.753,-0.865 2.083,-0.961 2.953,-0.213c0.455,0.396 0.717,0.971 0.717,1.575c-0,1.145 -0.942,2.087 -2.088,2.087c-0.502,-0 -0.989,-0.182 -1.368,-0.512l-0.001,0Zm58.363,-0.231c-0.33,-0.378 -0.512,-0.863 -0.512,-1.364c-0,-0.605 0.264,-1.18 0.723,-1.575c0.869,-0.748 2.199,-0.654 2.954,0.21c0.323,0.379 0.501,0.861 0.501,1.358c-0,1.147 -0.943,2.09 -2.09,2.09c-0.604,-0 -1.18,-0.262 -1.576,-0.719Zm14.023,-0.078c-0.092,-0.159 -0.141,-0.339 -0.141,-0.522c0,-0.372 0.201,-0.717 0.524,-0.901c0.497,-0.286 1.141,-0.114 1.43,0.381c0.091,0.158 0.139,0.338 0.139,0.521c0,0.574 -0.472,1.046 -1.046,1.046c-0.374,-0 -0.72,-0.201 -0.907,-0.525l0.001,-0Zm-84.87,0.381c-0.323,-0.185 -0.523,-0.53 -0.523,-0.902c-0,-0.183 0.048,-0.363 0.14,-0.521c0.289,-0.495 0.933,-0.667 1.43,-0.381c0.322,0.186 0.52,0.53 0.52,0.902c0,0.572 -0.471,1.043 -1.043,1.043c-0.184,0 -0.365,-0.048 -0.524,-0.141Zm53.17,-0.481c-1.176,-0.486 -1.947,-1.638 -1.947,-2.91c0,-1.727 1.422,-3.148 3.149,-3.148c1.727,-0 3.148,1.421 3.148,3.148c-0,1.727 -1.421,3.148 -3.148,3.148c-0.001,-0 -0.001,-0 -0.002,-0c-0.412,0 -0.82,-0.081 -1.2,-0.238Zm-24.144,-1.693c-0.162,-0.385 -0.245,-0.798 -0.245,-1.216c0,-1.726 1.42,-3.146 3.146,-3.146c1.726,-0 3.147,1.42 3.147,3.146c-0,1.726 -1.42,3.146 -3.145,3.146c-1.268,0.009 -2.42,-0.757 -2.903,-1.93Zm10.982,-3.415c0,-0.006 0,-0.011 0,-0.017c0,-1.723 1.419,-3.141 3.142,-3.141c1.724,-0 3.142,1.418 3.142,3.141c-0,1.724 -1.418,3.142 -3.142,3.142c-0.003,-0 -0.005,-0 -0.008,-0c-1.716,-0 -3.129,-1.409 -3.134,-3.125Zm-19.587,-2.118c-0.217,-0.336 -0.332,-0.727 -0.332,-1.127c-0,-0.709 0.363,-1.371 0.96,-1.752c0.967,-0.618 2.27,-0.337 2.895,0.625c0.205,0.33 0.313,0.711 0.313,1.1c0,1.147 -0.944,2.092 -2.091,2.092c-0.702,-0 -1.358,-0.353 -1.745,-0.938l0,0Zm42.541,0.611c-0.598,-0.381 -0.962,-1.043 -0.962,-1.753c0,-0.4 0.115,-0.791 0.332,-1.127c0.625,-0.962 1.928,-1.243 2.895,-0.626c0.595,0.384 0.954,1.045 0.954,1.753c0,1.145 -0.942,2.086 -2.086,2.086c-0.402,0 -0.795,-0.116 -1.133,-0.334l0,0.001Zm15.988,-1.389c-0.173,-0.191 -0.269,-0.439 -0.269,-0.697c0,-0.295 0.126,-0.577 0.347,-0.774c0.427,-0.383 1.093,-0.348 1.478,0.077c0.172,0.192 0.267,0.44 0.267,0.697c-0,0.573 -0.472,1.045 -1.045,1.045c-0.297,-0 -0.58,-0.127 -0.778,-0.348l0,0Zm-73.079,0.077c-0.22,-0.197 -0.346,-0.479 -0.346,-0.774c-0,-0.257 0.096,-0.506 0.269,-0.697c0.385,-0.425 1.051,-0.46 1.479,-0.077c0.22,0.197 0.346,0.479 0.346,0.774c0,0.258 -0.095,0.506 -0.269,0.697c-0.385,0.425 -1.051,0.459 -1.479,0.077l0,-0Zm24.332,-4.402c-0.058,-0.193 -0.087,-0.394 -0.087,-0.596c0,-1.148 0.945,-2.093 2.093,-2.093c1.148,0 2.093,0.945 2.093,2.093c-0,0.925 -0.613,1.745 -1.5,2.007c-1.1,0.324 -2.271,-0.312 -2.599,-1.411Zm23.271,1.406c-0.892,-0.261 -1.508,-1.085 -1.508,-2.013c-0,-1.151 0.946,-2.098 2.097,-2.098c1.151,-0 2.098,0.947 2.098,2.098c-0,1.15 -0.947,2.097 -2.097,2.097c-0.2,0 -0.399,-0.028 -0.59,-0.084l-0,-0Zm-12.418,-3.56c-0,-0.004 -0,-0.007 -0,-0.011c-0,-1.149 0.945,-2.095 2.094,-2.095c1.149,0 2.094,0.946 2.094,2.095c0,1.149 -0.945,2.094 -2.094,2.094c-1.146,0.003 -2.091,-0.937 -2.094,-2.083Zm-27.685,-0.454c-0.13,-0.178 -0.2,-0.392 -0.2,-0.612c0,-0.334 0.161,-0.648 0.432,-0.843c0.465,-0.336 1.124,-0.232 1.463,0.231c0.13,0.178 0.2,0.392 0.2,0.612c-0,0.334 -0.161,0.648 -0.431,0.843c-0.466,0.335 -1.124,0.231 -1.464,-0.231Zm58.094,0.23c-0.27,-0.195 -0.431,-0.509 -0.431,-0.843c0,-0.22 0.07,-0.435 0.201,-0.613c0.339,-0.462 0.998,-0.566 1.462,-0.23c0.27,0.196 0.43,0.51 0.43,0.843c-0,0.571 -0.471,1.042 -1.042,1.042c-0.001,-0 -0.003,-0 -0.004,-0c-0.221,-0 -0.437,-0.07 -0.616,-0.199l0,-0Zm-8.72,-5.009c-0.377,-0.165 -0.622,-0.54 -0.622,-0.952c-0,-0.146 0.031,-0.29 0.09,-0.423c0.236,-0.522 0.859,-0.76 1.383,-0.528c0.371,0.169 0.611,0.541 0.611,0.949c-0,0.572 -0.471,1.042 -1.043,1.042c-0.144,0 -0.287,-0.03 -0.419,-0.088l-0,-0Zm-40.572,-0.528c-0.061,-0.135 -0.092,-0.282 -0.092,-0.431c-0,-0.575 0.473,-1.049 1.049,-1.049c0.575,0 1.049,0.474 1.049,1.049c-0,0.576 -0.473,1.049 -1.049,1.049c-0.412,0.003 -0.789,-0.241 -0.957,-0.618Zm30.993,-2.568c-0.481,-0.103 -0.828,-0.532 -0.828,-1.024c-0,-0.575 0.472,-1.047 1.047,-1.047c0.574,-0 1.047,0.472 1.047,1.047c0,0.574 -0.472,1.047 -1.046,1.047c-0.074,0 -0.148,-0.007 -0.22,-0.023Zm-21.274,-0.801c-0.016,-0.073 -0.024,-0.148 -0.024,-0.223c-0,-0.574 0.473,-1.047 1.047,-1.047c0.574,0 1.047,0.473 1.047,1.047c-0,0.493 -0.347,0.921 -0.828,1.024c-0.56,0.12 -1.12,-0.241 -1.242,-0.801Zm10.211,-1.287c-0,-0.002 -0,-0.003 -0,-0.005c-0,-0.574 0.473,-1.047 1.047,-1.047c0.574,-0 1.047,0.473 1.047,1.047c0,0.574 -0.473,1.047 -1.047,1.047c-0.001,0 -0.002,0 -0.003,0c-0.572,0 -1.043,-0.47 -1.044,-1.042Z" style="fill:#011f4b;fill-rule:nonzero;"/></svg>